<?xml version="1.0" standalone="no"?>
<!DOCTYPE svg PUBLIC "-//W3C//DTD SVG 20010904//EN"
 "http://www.w3.org/TR/2001/REC-SVG-20010904/DTD/svg10.dtd">
<svg version="1.0" xmlns="http://www.w3.org/2000/svg"
 width="1024.000000pt" height="1024.000000pt" viewBox="0 0 1024.000000 1024.000000"
 preserveAspectRatio="xMidYMid meet">

<g transform="translate(0.000000,1024.000000) scale(0.100000,-0.100000)"
fill="#000000" stroke="none">
<path d="M8256 8193 c-124 -164 -362 -478 -529 -698 -167 -220 -300 -401 -297
-403 3 -1 118 47 255 108 137 60 252 110 256 110 4 0 -17 -61 -47 -135 -30
-74 -54 -136 -54 -138 0 -7 141 -59 146 -54 2 2 28 63 57 136 l53 131 94 -212
c51 -117 102 -232 113 -256 10 -24 21 -42 23 -40 6 6 164 1741 160 1746 -3 2
-106 -131 -230 -295z"/>
<path d="M4538 7009 l-3 -401 -35 47 c-38 51 -131 118 -188 136 -57 18 -225
23 -295 9 -191 -37 -362 -201 -425 -410 -30 -97 -45 -242 -38 -346 26 -369
223 -584 535 -584 190 0 318 64 428 215 l22 30 1 -107 0 -108 105 0 105 0 -2
958 -3 957 -102 3 -103 3 -2 -402z m-203 -410 c97 -46 173 -148 194 -264 16
-84 13 -287 -4 -370 -48 -227 -218 -353 -435 -323 -137 18 -233 105 -292 264
-30 81 -33 327 -4 419 55 181 166 286 320 303 78 9 163 -2 221 -29z"/>
<path d="M1610 7373 c-23 -9 -60 -45 -76 -75 -43 -83 25 -188 122 -188 45 0
95 27 120 65 22 34 22 106 0 140 -34 52 -110 78 -166 58z"/>
<path d="M310 6395 l0 -905 105 0 105 0 0 400 0 400 330 0 330 0 0 95 0 95
-330 0 -330 0 0 315 0 315 355 0 355 0 0 95 0 95 -460 0 -460 0 0 -905z"/>
<path d="M5357 6448 c-180 -469 -336 -877 -347 -906 l-20 -53 121 3 122 3 87
245 87 245 384 3 385 2 94 -250 95 -250 117 0 c65 0 118 3 118 6 0 4 -154 405
-341 893 -188 487 -344 892 -346 899 -4 8 -37 12 -117 12 l-112 0 -327 -852z
m607 119 c75 -203 136 -371 136 -373 0 -2 -139 -4 -309 -4 l-309 0 134 367
c74 202 144 398 156 437 l21 69 17 -64 c10 -35 79 -230 154 -432z"/>
<path d="M7766 6872 c-7 -15 -35 -76 -61 -137 -26 -60 -94 -203 -151 -317 -57
-114 -104 -211 -104 -216 0 -7 122 -72 135 -72 16 0 344 695 333 705 -2 2 -34
17 -71 34 l-67 30 -14 -27z"/>
<path d="M2670 6794 c-98 -27 -200 -103 -262 -194 -16 -24 -17 -22 -17 78 l-1
102 -110 0 -110 0 0 -645 0 -645 110 0 109 0 3 433 3 432 28 59 c50 108 126
179 219 207 18 5 65 10 104 10 155 0 243 -78 280 -250 10 -50 14 -163 14 -478
l0 -413 105 0 105 0 0 449 c0 497 -4 541 -62 658 -37 76 -108 145 -186 181
-49 23 -72 27 -167 29 -75 2 -127 -2 -165 -13z"/>
<path d="M1550 6135 l0 -645 105 0 105 0 0 645 0 645 -105 0 -105 0 0 -645z"/>
<path d="M7284 5917 c-99 -171 -167 -274 -261 -394 -34 -45 -63 -86 -63 -91 0
-5 27 -30 59 -56 l60 -46 84 112 c113 153 135 185 248 377 76 128 96 169 86
177 -7 6 -37 25 -68 42 l-56 32 -89 -153z"/>
<path d="M6829 5293 c-30 -32 -239 -209 -295 -249 -22 -16 -95 -54 -162 -84
-67 -30 -122 -59 -122 -65 0 -14 58 -135 64 -135 15 0 257 117 296 143 72 49
271 216 317 266 46 52 47 49 -27 111 l-47 39 -24 -26z"/>
<path d="M3496 4944 c-3 -43 -5 -79 -3 -80 1 -2 74 -7 162 -13 88 -5 260 -20
382 -32 122 -13 224 -21 227 -18 3 2 6 38 8 79 l3 74 -260 27 c-143 14 -317
29 -386 33 l-126 7 -7 -77z"/>
<path d="M3175 4999 c-88 -11 -229 -52 -320 -92 -118 -51 -275 -143 -275 -161
0 -7 58 -93 81 -120 5 -5 22 2 41 16 134 102 368 188 551 203 48 4 90 12 93
17 3 5 3 40 -1 79 l-7 69 -52 -1 c-28 -1 -78 -5 -111 -10z"/>
<path d="M4423 4858 c-7 -61 -6 -74 7 -80 39 -18 745 -86 758 -74 12 12 18
148 7 152 -5 1 -75 8 -155 14 -80 6 -238 22 -351 36 -283 33 -255 38 -266 -48z"/>
<path d="M6005 4863 c-49 -8 -190 -16 -367 -20 l-288 -5 0 -80 0 -80 293 5
c199 3 324 10 391 21 55 9 101 18 102 19 2 1 -2 37 -8 80 -9 60 -15 77 -27 76
-9 -1 -52 -8 -96 -16z"/>
<path d="M2399 4587 c-88 -102 -153 -207 -204 -327 -23 -53 -105 -321 -105
-340 0 -7 149 -45 153 -39 2 2 21 65 41 139 56 201 117 322 228 452 26 31 48
59 48 61 0 3 -26 28 -58 55 l-58 51 -45 -52z"/>
<path d="M3630 3565 l0 -905 105 0 105 0 0 386 0 386 133 -4 c236 -8 260 -31
536 -495 l162 -273 129 0 129 0 -151 243 c-296 475 -318 506 -400 562 -48 32
-51 36 -30 41 13 4 55 22 93 40 131 63 238 192 268 324 15 66 13 187 -4 255
-43 165 -175 287 -359 330 -47 11 -138 15 -388 15 l-328 0 0 -905z m674 685
c75 -29 138 -86 166 -152 19 -44 22 -65 18 -142 -5 -109 -27 -165 -88 -226
-23 -23 -67 -54 -99 -69 -54 -25 -64 -26 -258 -29 l-203 -3 0 326 0 327 203
-4 c180 -4 208 -7 261 -28z"/>
<path d="M8210 4306 l-95 -33 -3 -156 -3 -156 -112 -3 -112 -3 0 -90 0 -90
112 -3 112 -3 3 -453 3 -453 35 -68 c43 -84 98 -127 191 -151 73 -19 188 -15
254 9 l40 14 3 92 3 92 -33 -17 c-18 -9 -59 -19 -93 -21 -79 -6 -141 24 -170
82 -19 38 -20 63 -23 458 l-3 417 161 0 160 0 0 95 0 95 -160 0 -160 0 0 190
c0 105 -3 190 -7 189 -5 0 -51 -15 -103 -33z"/>
<path d="M5522 3980 c-145 -20 -261 -76 -358 -174 -129 -129 -185 -284 -184
-508 0 -153 18 -239 70 -346 108 -219 319 -332 595 -320 322 15 539 209 596
532 15 87 7 300 -15 381 -57 212 -207 369 -402 419 -76 19 -221 27 -302 16z
m261 -200 c162 -61 249 -228 249 -475 0 -240 -75 -392 -230 -463 -82 -37 -231
-43 -321 -12 -112 37 -179 97 -233 205 -40 79 -53 149 -52 275 1 266 116 438
324 487 73 17 193 9 263 -17z"/>
<path d="M9344 3981 c-167 -27 -322 -134 -411 -285 -160 -274 -122 -708 80
-909 34 -34 85 -74 114 -90 187 -100 513 -87 706 30 l47 28 0 98 0 99 -32 -21
c-125 -83 -243 -121 -373 -121 -248 0 -383 128 -419 397 l-6 43 457 2 458 3
-3 126 c-4 207 -48 341 -149 450 -64 68 -118 103 -202 129 -69 22 -197 32
-267 21z m236 -209 c94 -47 150 -144 166 -284 l7 -58 -347 0 c-397 0 -363 -11
-325 102 46 139 144 237 266 268 65 16 171 3 233 -28z"/>
<path d="M6544 3945 c-4 -8 -4 -214 -2 -458 5 -412 7 -447 27 -521 43 -160
121 -257 248 -307 50 -20 76 -23 183 -23 107 0 133 3 183 23 72 28 149 90 194
155 l33 48 0 -101 0 -101 105 0 105 0 0 650 0 650 -105 0 -105 0 0 -412 c0
-438 -3 -469 -50 -561 -30 -58 -85 -114 -145 -145 -45 -24 -61 -27 -150 -27
-92 0 -104 2 -153 30 -59 32 -99 82 -128 160 -17 45 -19 92 -24 500 l-5 450
-103 3 c-85 2 -103 0 -108 -13z"/>
<path d="M2066 3751 c-17 -26 -70 -758 -57 -772 3 -4 39 -9 78 -11 l73 -4 5
31 c2 16 7 93 10 170 3 77 13 223 22 325 24 266 26 243 -27 252 -25 4 -57 9
-72 12 -15 3 -30 2 -32 -3z"/>
</g>
</svg>
